<svg width="328" height="450" viewBox="0 0 328 450" fill="none" xmlns="http://www.w3.org/2000/svg">
<path d="M230.689 449.17V175.283C230.689 78.9429 152.45 0.842701 55.9371 0.842701H0V449.17H230.689Z" fill="#70CB27"/>
<path d="M0 312.575V449.17H136.817C136.838 373.73 75.574 312.575 0 312.575Z" fill="#91EE96"/>
<path d="M103.827 335.843C98.4212 336.013 98.2549 344 103.827 344.332C109.234 344.162 109.396 336.179 103.827 335.843Z" fill="#343535"/>
<path d="M133.05 335.843C127.644 336.013 127.477 344 133.05 344.332C138.456 344.162 138.618 336.179 133.05 335.843Z" fill="#343535"/>
<path d="M162.293 344.332C167.699 344.162 167.861 336.179 162.293 335.843C156.862 336.013 156.7 344 162.293 344.332Z" fill="#343535"/>
<path d="M103.827 362.041C98.4212 362.211 98.2549 370.198 103.827 370.53C109.234 370.368 109.396 362.385 103.827 362.041Z" fill="#343535"/>
<path d="M133.05 362.041C127.644 362.211 127.477 370.198 133.05 370.53C138.456 370.368 138.618 362.385 133.05 362.041Z" fill="#343535"/>
<path d="M162.293 362.041C156.887 362.211 156.72 370.198 162.293 370.53C167.699 370.368 167.84 362.385 162.293 362.041Z" fill="#343535"/>
<path d="M103.827 388.255C98.4212 388.426 98.2549 396.412 103.827 396.745C109.234 396.574 109.396 388.608 103.827 388.255Z" fill="#343535"/>
<path d="M133.05 388.255C127.644 388.426 127.477 396.412 133.05 396.745C138.456 396.574 138.618 388.608 133.05 388.255Z" fill="#343535"/>
<path d="M162.293 388.255C156.887 388.426 156.72 396.412 162.293 396.745C167.699 396.574 167.84 388.608 162.293 388.255Z" fill="#343535"/>
<path d="M326.557 449.539H327.988C276.063 400.518 188.754 400.086 136.847 449.539H140.381C165.491 426.468 198.372 413.664 232.5 413.669C266.627 413.674 299.505 426.489 324.607 449.568L326.557 449.539Z" fill="#343535"/>
<path d="M298.694 449.975C259.379 424.777 206.129 424.437 166.697 449.531H170.194C208.096 426.807 258.028 426.865 295.734 449.996L298.694 449.975Z" fill="#343535"/>
<path d="M234.078 0.0290613C231.231 0.0788754 228.383 0.113469 225.533 0.132841C226.21 25.646 226.751 45.198 226.751 45.2188L234.652 45.1814C234.997 28.5352 235.355 13.5328 235.717 0L234.078 0.0290613Z" fill="#343535"/>
<path d="M230.689 237.032C192.43 236.36 174.186 200.988 180.154 175.786C188.355 133.481 227.653 34.9571 230.689 27.0947L231.463 29.0416C233.542 34.2804 282.339 157.616 282.339 185.47C282.323 199.14 276.877 212.245 267.194 221.912C257.511 231.578 244.383 237.016 230.689 237.032ZM230.689 31.6154C224.302 47.8755 180.703 159.82 180.703 185.47C180.703 198.704 185.969 211.396 195.344 220.753C204.718 230.111 217.432 235.368 230.689 235.368C243.946 235.368 256.661 230.111 266.035 220.753C275.409 211.396 280.675 198.704 280.675 185.47C280.675 159.82 237.077 47.8755 230.689 31.6071V31.6154Z" fill="#343535"/>
<path d="M230.689 237.032C182.974 230.502 187.394 172.855 200.065 129.899C211.643 83.7126 229.629 29.9134 229.957 28.9088L230.689 26.7294C232.124 31.03 231.371 28.7552 231.812 30.0919C234.482 38.1452 252.281 92.3263 262.773 135.843C275.028 176.77 275.336 231.752 230.689 237.032ZM230.689 31.9931C225.628 47.3525 197.716 133.203 193.216 172.303C188.983 199.194 204.345 238.992 235.002 235.04C279.049 222.586 270.117 168.231 260.011 131.518C249.943 91.0145 234.365 43.1515 230.689 31.9931Z" fill="#343535"/>
<path d="M230.689 237.032C169.121 224.886 231.346 32.6199 230.689 26.0279C230.618 34.5129 291.92 224.749 230.689 237.032ZM230.689 32.7237C226.019 52.2343 203.829 139.284 204.548 181.182C205.825 232.051 233.929 253.28 249.652 217.688C271.248 171.838 234.54 55.6839 230.689 32.7237Z" fill="#343535"/>
<path d="M230.689 237.032C195.042 225.077 231.163 24.7203 229.857 29.2367C229.72 30.1666 230.598 24.6082 230.689 24.1474C230.718 24.4172 231.646 29.9964 231.521 29.2367C231.001 29.216 265.917 225.156 230.689 237.032ZM230.689 34.7121C195.79 250.017 237.181 264.459 243.215 204.62C249.623 143.099 234.053 63.7538 230.689 34.7121Z" fill="#343535"/>
<path d="M230.689 237.032C230.506 237.029 230.325 236.989 230.159 236.913C229.992 236.837 229.843 236.728 229.72 236.592C228.622 235.455 225.283 232.001 227.154 130.061C228.073 79.8313 229.841 29.8179 229.857 29.3198H231.521C231.521 29.8179 233.305 79.8354 234.224 130.061C236.095 232.001 232.756 235.455 231.658 236.592C231.535 236.728 231.386 236.837 231.219 236.912C231.053 236.988 230.872 237.029 230.689 237.032ZM230.689 55.0322C230.099 74.4181 229.321 102.389 228.809 130.388C227.238 216.376 229.429 232.553 230.689 235.102C231.937 232.553 234.141 216.376 232.569 130.388C232.057 102.389 231.28 74.4181 230.689 55.0322Z" fill="#343535"/>
<path d="M4.06112e-06 348.338V70.4621H136.651V348.338H4.06112e-06Z"/>
</svg>
