<svg width="363" height="448" viewBox="0 0 363 448" fill="none" xmlns="http://www.w3.org/2000/svg">
<path d="M362.786 107.376C362.786 102.008 362.687 96.5601 362.678 91.1568C362.674 91.0635 362.703 90.9718 362.761 90.898C362.818 90.8243 362.9 90.7733 362.991 90.7542L362.991 2.25245L134.393 2.25249L134.393 274.548C134.393 370.332 211.92 447.973 307.563 447.973H362.991L362.991 107.743C362.927 107.706 362.874 107.652 362.838 107.587C362.802 107.523 362.784 107.45 362.786 107.376Z" fill="#B2EF9B"/>
<path d="M362.786 107.376C362.786 102.008 362.687 96.5601 362.678 91.1568C362.674 91.0635 362.703 90.9718 362.761 90.898C362.818 90.8243 362.9 90.7733 362.991 90.7542L362.991 2.25245L227.392 2.25247C227.394 38.2678 241.681 72.8074 267.111 98.2741C292.54 123.741 327.029 138.049 362.991 138.051V107.743C362.927 107.706 362.874 107.652 362.838 107.587C362.802 107.523 362.784 107.45 362.786 107.376Z" fill="#91CB3E"/>
<path d="M109.343 131.051C110.262 128.908 109.272 126.425 107.132 125.505C104.992 124.585 102.513 125.577 101.594 127.72C100.676 129.863 101.666 132.345 103.806 133.265C105.946 134.185 108.425 133.193 109.343 131.051Z" fill="#373838"/>
<path d="M134.393 125.125C133.559 125.123 132.742 125.369 132.047 125.832C131.353 126.296 130.811 126.955 130.491 127.727C130.17 128.499 130.086 129.349 130.249 130.169C130.411 130.988 130.813 131.742 131.403 132.333C131.993 132.924 132.745 133.326 133.564 133.489C134.383 133.651 135.231 133.567 136.002 133.246C136.773 132.926 137.431 132.383 137.894 131.687C138.356 130.992 138.602 130.174 138.6 129.338C138.6 128.221 138.157 127.149 137.368 126.359C136.579 125.568 135.509 125.125 134.393 125.125Z" fill="#373838"/>
<path d="M163.353 133.56C165.682 133.56 167.569 131.67 167.569 129.338C167.569 127.006 165.682 125.116 163.353 125.116C161.025 125.116 159.137 127.006 159.137 129.338C159.137 131.67 161.025 133.56 163.353 133.56Z" fill="#373838"/>
<path d="M109.351 157.11C110.269 154.967 109.279 152.484 107.139 151.564C105 150.644 102.52 151.636 101.602 153.779C100.684 155.922 101.674 158.404 103.813 159.324C105.953 160.244 108.432 159.253 109.351 157.11Z" fill="#373838"/>
<path d="M134.393 151.175C133.559 151.173 132.743 151.419 132.048 151.882C131.354 152.345 130.812 153.004 130.492 153.775C130.171 154.547 130.086 155.396 130.248 156.216C130.41 157.035 130.81 157.789 131.4 158.38C131.989 158.971 132.74 159.374 133.558 159.538C134.377 159.702 135.225 159.619 135.996 159.299C136.767 158.98 137.426 158.439 137.889 157.744C138.353 157.05 138.6 156.233 138.6 155.397C138.6 154.279 138.157 153.206 137.369 152.415C136.58 151.623 135.51 151.177 134.393 151.175Z" fill="#373838"/>
<path d="M163.353 159.611C165.682 159.611 167.569 157.72 167.569 155.388C167.569 153.056 165.682 151.166 163.353 151.166C161.025 151.166 159.137 153.056 159.137 155.388C159.137 157.72 161.025 159.611 163.353 159.611Z" fill="#373838"/>
<path d="M109.35 183.165C110.269 181.022 109.279 178.539 107.139 177.619C104.999 176.7 102.52 177.691 101.601 179.834C100.683 181.977 101.673 184.46 103.813 185.38C105.953 186.3 108.432 185.308 109.35 183.165Z" fill="#373838"/>
<path d="M134.393 177.234C133.559 177.233 132.742 177.479 132.047 177.942C131.353 178.406 130.811 179.065 130.491 179.837C130.17 180.609 130.086 181.459 130.249 182.278C130.411 183.098 130.813 183.852 131.403 184.443C131.993 185.034 132.745 185.436 133.564 185.599C134.383 185.761 135.231 185.677 136.002 185.356C136.773 185.036 137.431 184.493 137.894 183.797C138.356 183.101 138.602 182.284 138.6 181.448C138.6 180.33 138.157 179.259 137.368 178.469C136.579 177.678 135.509 177.234 134.393 177.234Z" fill="#373838"/>
<path d="M163.353 185.67C165.682 185.67 167.569 183.78 167.569 181.448C167.569 179.116 165.682 177.225 163.353 177.225C161.025 177.225 159.137 179.116 159.137 181.448C159.137 183.78 161.025 185.67 163.353 185.67Z" fill="#373838"/>
<path d="M128.355 353.567L125.603 447.946H127.256L129.998 353.603C130.045 351.74 129.544 349.904 128.558 348.323C127.571 346.742 126.144 345.486 124.451 344.711C118.439 341.902 114.696 336.248 114.92 330.29C115.536 310.457 118.931 271.954 119.458 266.094H121.887L121.887 324.457C121.88 324.892 121.963 325.324 122.132 325.724C122.301 326.125 122.551 326.486 122.867 326.784C123.184 327.083 123.559 327.311 123.968 327.456C124.378 327.6 124.813 327.658 125.246 327.624C126.044 327.558 126.787 327.192 127.326 326.6C127.864 326.007 128.159 325.232 128.149 324.43L128.149 266.103H129.855L129.855 324.466C129.856 324.892 129.943 325.314 130.113 325.705C130.282 326.097 130.53 326.449 130.84 326.741C131.151 327.032 131.517 327.257 131.918 327.401C132.319 327.546 132.745 327.606 133.169 327.579C133.968 327.514 134.712 327.148 135.252 326.556C135.792 325.963 136.089 325.188 136.082 324.386L136.082 266.103H137.752L137.752 324.466C137.752 324.892 137.84 325.314 138.009 325.705C138.179 326.097 138.426 326.449 138.737 326.741C139.047 327.032 139.414 327.257 139.815 327.401C140.215 327.546 140.641 327.606 141.066 327.579C141.864 327.514 142.609 327.148 143.149 326.556C143.689 325.963 143.985 325.188 143.978 324.386V266.103H146.408C146.935 271.963 150.329 310.466 150.946 330.299C151.169 336.248 147.426 341.928 141.414 344.711C139.722 345.488 138.295 346.744 137.307 348.324C136.32 349.904 135.816 351.739 135.858 353.603L138.645 448H140.298L137.511 353.567C137.478 352.027 137.896 350.511 138.713 349.205C139.531 347.9 140.712 346.863 142.111 346.223C148.721 343.136 152.83 336.865 152.598 330.254C151.919 308.784 148.025 265.647 147.98 265.217L147.917 264.466H142.326L142.326 324.404C142.334 324.786 142.198 325.158 141.945 325.445C141.691 325.732 141.339 325.913 140.959 325.951C140.759 325.964 140.558 325.936 140.369 325.868C140.18 325.8 140.007 325.695 139.86 325.557C139.712 325.421 139.595 325.255 139.515 325.07C139.435 324.885 139.394 324.685 139.396 324.484V264.457H134.402L134.402 324.395C134.409 324.778 134.271 325.15 134.016 325.437C133.761 325.724 133.408 325.904 133.026 325.942C132.826 325.956 132.625 325.928 132.436 325.86C132.246 325.792 132.073 325.686 131.926 325.549C131.78 325.411 131.663 325.245 131.583 325.06C131.504 324.875 131.463 324.676 131.463 324.475V264.457H126.47L126.47 324.395C126.476 324.777 126.34 325.148 126.087 325.434C125.834 325.721 125.483 325.902 125.103 325.942C124.902 325.957 124.7 325.93 124.51 325.863C124.319 325.796 124.145 325.69 123.997 325.552C123.85 325.415 123.732 325.248 123.652 325.062C123.572 324.877 123.53 324.677 123.531 324.475L123.531 264.457H117.948L117.886 265.208C117.886 265.638 113.937 308.802 113.267 330.245C113.026 336.856 117.135 343.127 123.754 346.214C125.155 346.855 126.337 347.893 127.155 349.2C127.972 350.507 128.389 352.025 128.355 353.567Z" fill="#373838"/>
<path d="M263.498 1.68887C248.679 60.2398 195.609 103.672 132.616 103.672C69.6218 103.672 16.4898 60.2041 1.72401 1.63524L0 1.7068C7.42128 31.3014 24.5001 57.5657 48.5256 76.3313C72.5512 95.0968 102.147 105.288 132.616 105.288C163.084 105.288 192.68 95.0968 216.705 76.3313C240.731 57.5657 257.81 31.3013 265.231 1.70675C264.65 1.70675 264.07 1.70676 263.498 1.68887Z" fill="#373838"/>
<path d="M244.641 1.50102C230.349 49.961 185.56 85.4315 132.616 85.4315C107.333 85.4005 82.7417 77.1664 62.5248 61.9628C42.3079 46.7593 27.5542 25.4048 20.4739 1.09848L18.6873 0.982178C25.7389 25.7575 40.6496 47.5617 61.167 63.1013C81.6845 78.6409 106.694 87.0718 132.418 87.1202C158.142 87.1687 183.184 78.8322 203.759 63.3701C224.335 47.908 239.328 26.1601 246.472 1.41155L244.641 1.50102Z" fill="#373838"/>
<path d="M225.534 1.32209C218.765 20.5697 206.205 37.2425 189.582 49.0447C172.959 60.8469 153.092 67.198 132.716 67.2235C112.339 67.249 92.456 60.9477 75.8039 49.1872C59.1517 37.4266 46.5496 20.7853 39.7329 1.55473L37.9463 1.62628C44.8287 21.276 57.641 38.2967 74.6093 50.3317C91.5776 62.3668 111.863 68.8208 132.655 68.8002C153.448 68.7795 173.72 62.2852 190.665 50.2165C207.609 38.1478 220.388 21.1017 227.231 1.43839C226.704 1.39366 226.124 1.34893 225.534 1.32209Z" fill="#373838"/>
<path d="M205.641 1.8499C199.251 15.8844 188.966 27.7825 176.012 36.1255C163.058 44.4686 147.981 48.9046 132.58 48.9046C117.178 48.9046 102.101 44.4686 89.1473 36.1256C76.1931 27.7825 65.9083 15.8844 59.5189 1.84992C58.9115 1.84992 58.3041 1.84992 57.7324 1.84992C64.1639 16.344 74.6518 28.6609 87.9271 37.3103C101.202 45.9597 116.696 50.5709 132.533 50.5861C148.371 50.6012 163.873 46.0196 177.165 37.3956C190.457 28.7716 200.968 16.4748 207.427 1.99304L205.641 1.8499Z" fill="#373838"/>
<path d="M184.899 1.92149C179.3 10.7311 171.573 17.984 162.433 23.0088C153.292 28.0336 143.034 30.6679 132.607 30.6679C122.18 30.6679 111.921 28.0336 102.78 23.0088C93.6398 17.984 85.9127 10.7311 80.3143 1.9215L78.2955 1.84097C83.9751 11.1402 91.9408 18.8257 101.431 24.1635C110.922 29.5012 121.621 32.3129 132.506 32.33C143.39 32.347 154.098 29.5689 163.605 24.2609C173.112 18.9529 181.102 11.2923 186.811 2.01092C186.167 1.99303 185.533 1.93043 184.899 1.92149Z" fill="#373838"/>
<path d="M161.299 1.64414C153.345 8.56757 143.162 12.3803 132.624 12.3803C122.087 12.3803 111.904 8.56757 103.95 1.64415L101.494 1.64415C109.902 9.58612 121.02 14.0142 132.578 14.0242C144.136 14.0342 155.262 9.62529 163.684 1.69784C162.889 1.67995 162.094 1.65309 161.299 1.64414Z" fill="#373838"/>
<path d="M362.759 102.33L324.026 101.293C322.324 101.257 320.657 101.777 319.275 102.772C317.893 103.767 316.87 105.185 316.362 106.812C314.299 113.361 307.429 124.337 284.561 124.337C262.605 124.337 236.092 112.708 236.092 98.1884C236.092 83.6692 262.605 72.0394 284.561 72.0394C307.42 72.0394 314.272 83.0161 316.326 89.5555C316.834 91.1835 317.856 92.6025 319.238 93.5994C320.62 94.5963 322.288 95.1172 323.991 95.0841L362.696 94.0016C362.696 93.447 362.696 92.9013 362.696 92.3466L323.955 93.438C322.611 93.4564 321.298 93.0408 320.208 92.2529C319.119 91.465 318.312 90.3466 317.908 89.0635C315.719 82.0857 308.483 70.3845 284.57 70.3845C272.938 70.4747 261.478 73.2093 251.055 78.3821C240.335 83.8839 234.449 90.9064 234.449 98.1884C234.449 105.47 240.344 112.502 251.055 118.004C261.48 123.171 272.939 125.902 284.57 125.992C308.492 125.992 315.746 114.282 317.943 107.304C318.349 106.024 319.155 104.909 320.243 104.123C321.33 103.337 322.641 102.922 323.982 102.939L362.768 103.976C362.759 103.431 362.759 102.885 362.759 102.33Z" fill="#373838"/>
<path d="M217.503 411.93L217.503 179.337L361.267 179.337L361.267 411.93H217.503Z"/>
</svg>
