<svg width="34" height="47" viewBox="0 0 34 47" fill="none" xmlns="http://www.w3.org/2000/svg">
<path d="M17.0309 39.9117C22.4321 39.9117 26.8106 35.5477 26.8106 30.1646C26.8106 24.7815 22.4321 20.4175 17.0309 20.4175C11.6297 20.4175 7.25122 24.7815 7.25122 30.1646C7.25122 35.5477 11.6297 39.9117 17.0309 39.9117Z" fill="black"/>
<path d="M19.0183 39.7022C19.0183 40.4439 19.0183 41.1944 19.0183 41.9361C19.0183 42.3637 19.2021 42.3724 19.5349 42.3113C22.0198 41.7773 24.2815 40.4989 26.0169 38.6477C27.7524 36.7964 28.8785 34.4606 29.2445 31.9534C29.468 30.1254 29.2918 28.2708 28.7279 26.5171C26.9769 20.8102 25.2258 15.0859 23.4747 9.36158C22.4591 6.00203 18.0902 3.9863 14.6669 5.34757C13.6523 5.7085 12.7398 6.30772 12.0068 7.09452C11.2738 7.88132 10.7417 8.83255 10.4556 9.86769C8.76579 15.5309 6.95346 21.2116 5.25493 26.8138C4.46023 29.4444 4.57839 32.2652 5.59034 34.8207C6.60228 37.3762 8.44893 39.5171 10.8321 40.8977C11.0597 41.0199 11.2873 41.142 11.5062 41.2729C11.7316 41.3927 11.931 41.5555 12.0933 41.7521C12.2555 41.9487 12.3773 42.1752 12.4517 42.4187C12.5261 42.6621 12.5516 42.9179 12.5268 43.1712C12.5021 43.4245 12.4275 43.6705 12.3073 43.8951C12.1872 44.1197 12.0238 44.3185 11.8266 44.4802C11.6293 44.6419 11.4021 44.7633 11.1577 44.8374C10.9134 44.9115 10.6569 44.937 10.4027 44.9123C10.1485 44.8876 9.90171 44.8133 9.67636 44.6936C7.18414 43.4738 5.06721 41.6081 3.54764 39.2921C2.15929 37.2595 1.26347 34.9333 0.930741 32.4969C0.598009 30.0605 0.837454 27.5803 1.63022 25.2518C3.43381 19.4228 5.18489 13.585 7.03226 7.79961C7.77233 5.63333 9.27456 3.80751 11.2611 2.65994C12.5476 1.84885 13.9918 1.31813 15.4987 1.10263C17.0056 0.887124 18.5412 0.991705 20.0047 1.40951C21.4681 1.82731 22.8264 2.54888 23.9903 3.52686C25.1542 4.50484 26.0974 5.7171 26.758 7.08407C27.3926 8.64526 27.9163 10.249 28.3252 11.8834C29.726 16.4472 31.1531 20.9935 32.519 25.5659C33.1962 27.7875 33.3847 30.1284 33.0715 32.4292C32.7584 34.7299 31.9509 36.9362 30.7043 38.8976C29.4577 40.859 27.8013 42.5294 25.848 43.7946C23.8947 45.0599 21.6906 45.8904 19.386 46.2293C18.859 46.3031 18.3222 46.2655 17.8107 46.1188C17.2993 45.9722 16.8245 45.7199 16.4173 45.3783C16.0102 45.0367 15.6798 44.6134 15.4475 44.1362C15.2153 43.6589 15.0866 43.1382 15.0696 42.608C15.0696 41.6307 15.0696 40.6534 15.0696 39.676C15.0696 39.327 15.0696 38.978 15.0696 38.6289C15.1232 38.3376 15.074 38.0368 14.9304 37.7775C14.7868 37.5183 14.5576 37.3165 14.2817 37.2066C13.5562 36.8191 12.9485 36.2447 12.5219 35.5432C12.0953 34.8417 11.8654 34.039 11.8564 33.2187C11.7951 30.758 11.8564 28.2885 11.8564 25.819C11.8381 25.6749 11.8489 25.5287 11.8881 25.3888C11.9273 25.249 11.9941 25.1183 12.0846 25.0045C12.1751 24.8907 12.2876 24.7961 12.4153 24.7262C12.5429 24.6563 12.6834 24.6125 12.8283 24.5973C12.9876 24.5948 13.1456 24.6265 13.2916 24.6901C13.4376 24.7538 13.5681 24.848 13.6744 24.9663C13.7807 25.0846 13.8602 25.2244 13.9076 25.376C13.9549 25.5276 13.9691 25.6876 13.949 25.8452C13.949 27.1017 13.949 28.3583 13.949 29.6149C13.949 30.4002 14.3517 30.8801 14.947 30.8714C15.5424 30.8627 15.9364 30.3915 15.9364 29.6061C15.9364 28.3321 15.9364 27.0494 15.9364 25.7666C15.9379 25.4735 16.0507 25.1918 16.2521 24.9781C16.4535 24.7644 16.7286 24.6346 17.0221 24.6148C17.1735 24.619 17.3223 24.6554 17.4584 24.7218C17.5945 24.7881 17.7148 24.8828 17.811 24.9994C17.9073 25.1161 17.9773 25.2519 18.0164 25.3978C18.0555 25.5437 18.0628 25.6963 18.0377 25.8452C18.0377 27.1279 18.0377 28.4019 18.0377 29.6847C18.0377 30.4438 18.4754 30.9325 19.0796 30.9238C19.6837 30.915 20.1039 30.4351 20.1127 29.6759C20.1127 28.4368 20.1127 27.2065 20.1127 25.9761C20.1127 25.182 20.5417 24.6497 21.1458 24.6584C21.7499 24.6672 22.214 25.1645 22.214 25.9499C22.214 28.3234 22.214 30.6969 22.214 33.0704C22.2405 33.8558 22.0596 34.6343 21.6893 35.328C21.319 36.0218 20.7723 36.6064 20.1039 37.0233C19.6817 37.2197 19.3405 37.5553 19.1379 37.9734C18.9353 38.3916 18.8838 38.8666 18.992 39.3183C19.0095 39.423 19.0095 39.5626 19.0183 39.7022Z" fill="#80B918"/>
</svg>
