<svg width="25" height="25" viewBox="0 0 25 25" fill="none" xmlns="http://www.w3.org/2000/svg">
<rect x="2.75" y="10" width="18.5" height="11.25" fill="#DF2BAD" fill-opacity="0.47" stroke="black" stroke-width="1.5" stroke-linejoin="round"/>
<path d="M2.75 10L7.375 5" stroke="black" stroke-width="1.5" stroke-linecap="round"/>
<path d="M21.25 10L11.2366 5.02898" stroke="black" stroke-width="1.5" stroke-linecap="round"/>
<path d="M11.25 4.5C11.25 5.44726 10.4549 6.25 9.43056 6.25C8.4062 6.25 7.61111 5.44726 7.61111 4.5C7.61111 3.55274 8.4062 2.75 9.43056 2.75C10.4549 2.75 11.25 3.55274 11.25 4.5Z" stroke="black" stroke-width="1.5"/>
<line x1="2.75" y1="15.75" x2="21.25" y2="15.75" stroke="black" stroke-width="1.5"/>
<path fill-rule="evenodd" clip-rule="evenodd" d="M7.41666 15H8.91666C8.91666 13.3431 7.53621 12 5.83333 12C4.13045 12 2.75 13.3431 2.75 15H4.25C4.25 14.21 4.91988 13.5 5.83333 13.5C6.74679 13.5 7.41666 14.21 7.41666 15Z" fill="black"/>
<path fill-rule="evenodd" clip-rule="evenodd" d="M7.41666 21H8.91666C8.91666 19.3431 7.53621 18 5.83333 18C4.13045 18 2.75 19.3431 2.75 21H4.25C4.25 20.21 4.91988 19.5 5.83333 19.5C6.74679 19.5 7.41666 20.21 7.41666 21Z" fill="black"/>
<path fill-rule="evenodd" clip-rule="evenodd" d="M13.5833 15H15.0833C15.0833 13.3431 13.7029 12 12 12C10.2971 12 8.91666 13.3431 8.91666 15H10.4167C10.4167 14.21 11.0865 13.5 12 13.5C12.9134 13.5 13.5833 14.21 13.5833 15Z" fill="black"/>
<path fill-rule="evenodd" clip-rule="evenodd" d="M13.5833 21H15.0833C15.0833 19.3431 13.7029 18 12 18C10.2971 18 8.91666 19.3431 8.91666 21H10.4167C10.4167 20.21 11.0865 19.5 12 19.5C12.9134 19.5 13.5833 20.21 13.5833 21Z" fill="black"/>
<path fill-rule="evenodd" clip-rule="evenodd" d="M19.75 15H21.25C21.25 13.3431 19.8695 12 18.1666 12C16.4638 12 15.0833 13.3431 15.0833 15H16.5833C16.5833 14.21 17.2532 13.5 18.1666 13.5C19.0801 13.5 19.75 14.21 19.75 15Z" fill="black"/>
<path fill-rule="evenodd" clip-rule="evenodd" d="M19.75 21H21.25C21.25 19.3431 19.8695 18 18.1666 18C16.4638 18 15.0833 19.3431 15.0833 21H16.5833C16.5833 20.21 17.2532 19.5 18.1666 19.5C19.0801 19.5 19.75 20.21 19.75 21Z" fill="black"/>
</svg>
