<svg width="25" height="25" viewBox="0 0 25 25" fill="none" xmlns="http://www.w3.org/2000/svg">
<path d="M12.0698 13.932C12.0309 13.9698 11.969 13.9698 11.9302 13.932L5.24795 7.42162C5.18369 7.35901 5.22801 7.25 5.31773 7.25H18.6823C18.772 7.25 18.8163 7.35901 18.752 7.42162L12.0698 13.932Z" fill="#DADE1C" fill-opacity="0.78"/>
<path d="M4.71368 9.18986L4.63399 8.44411L4.71368 9.18986ZM2.51249 7.41369L3.25825 7.334L2.51249 7.41369ZM4.28867 5.2125L4.20898 4.46675L4.28867 5.2125ZM10 20.75C9.58578 20.75 9.25 21.0858 9.25 21.5C9.25 21.9142 9.58578 22.25 10 22.25V20.75ZM14 22.25C14.4142 22.25 14.75 21.9142 14.75 21.5C14.75 21.0858 14.4142 20.75 14 20.75V22.25ZM18.752 7.42162L19.2754 7.95882L19.2754 7.95882L18.752 7.42162ZM5.24795 7.42162L5.77133 6.88443L5.24795 7.42162ZM11.9302 13.932L12.4536 13.3948L12.4536 13.3948L11.9302 13.932ZM12.0698 13.932L11.5464 13.3948L11.5464 13.3948L12.0698 13.932ZM12.75 14C12.75 13.5858 12.4142 13.25 12 13.25C11.5858 13.25 11.25 13.5858 11.25 14L12.75 14ZM11.25 21.5C11.25 21.9142 11.5858 22.25 12 22.25C12.4142 22.25 12.75 21.9142 12.75 21.5L11.25 21.5ZM19.2974 2.92902C19.5344 2.58926 19.451 2.12176 19.1113 1.88482C18.7715 1.64788 18.304 1.73123 18.0671 2.07098L19.2974 2.92902ZM14.7545 6.82098C14.5175 7.16073 14.6009 7.62823 14.9406 7.86517C15.2804 8.10211 15.7479 8.01877 15.9848 7.67902L14.7545 6.82098ZM4.63399 8.44411C3.94754 8.51746 3.3316 8.02045 3.25825 7.334L1.76674 7.49338C1.92811 9.00356 3.28318 10.097 4.79337 9.93562L4.63399 8.44411ZM3.25825 7.334C3.1849 6.64755 3.68191 6.03161 4.36836 5.95826L4.20898 4.46675C2.69879 4.62812 1.60537 5.98319 1.76674 7.49338L3.25825 7.334ZM4.36836 5.95826C5.05481 5.88491 5.67075 6.38192 5.7441 7.06837L7.23561 6.90899C7.07423 5.3988 5.71917 4.30538 4.20898 4.46675L4.36836 5.95826ZM5.45157 8.01312C5.2508 8.24827 4.96506 8.40873 4.63399 8.44411L4.79337 9.93562C5.52063 9.8579 6.15252 9.50222 6.59232 8.98713L5.45157 8.01312ZM10 22.25H14V20.75H10V22.25ZM12.4536 13.3948L5.77133 6.88443L4.72457 7.95882L11.4068 14.4692L12.4536 13.3948ZM5.31773 8H18.6823V6.5H5.31773V8ZM18.2287 6.88443L11.5464 13.3948L12.5932 14.4692L19.2754 7.95882L18.2287 6.88443ZM18.6823 8C18.0991 8 17.811 7.2914 18.2287 6.88443L19.2754 7.95882C19.8217 7.42663 19.4449 6.5 18.6823 6.5V8ZM5.77133 6.88443C6.18903 7.29139 5.90092 8 5.31773 8V6.5C4.55511 6.5 4.17835 7.42664 4.72457 7.95882L5.77133 6.88443ZM11.4068 14.4692C11.7369 14.7908 12.2631 14.7908 12.5932 14.4692L11.5464 13.3948C11.7988 13.1489 12.2012 13.1489 12.4536 13.3948L11.4068 14.4692ZM11.25 14L11.25 21.5L12.75 21.5L12.75 14L11.25 14ZM18.0671 2.07098L14.7545 6.82098L15.9848 7.67902L19.2974 2.92902L18.0671 2.07098Z" fill="black"/>
</svg>
