<svg width="16" height="16" viewBox="0 0 16 16" fill="none" xmlns="http://www.w3.org/2000/svg">
<path d="M4 5.94991L3.57817 5.68148L3.5 5.80431V5.94991H4ZM6.69761 1.71082L7.11944 1.97926L6.69761 1.71082ZM9.36455 3.22082L8.91734 2.99721V2.99721L9.36455 3.22082ZM8 5.94991L7.55279 5.72631C7.47529 5.8813 7.48357 6.06537 7.57467 6.21278C7.66578 6.36019 7.82671 6.44991 8 6.44991V5.94991ZM15 10.9499L15.4 11.2499L15.5 11.1166V10.9499H15ZM12.6 14.1499L13 14.4499L12.6 14.1499ZM8.78158 1.21886L9.03883 0.790115L9.03883 0.790115L8.78158 1.21886ZM0.5 5.44991V15.4499H1.5V5.44991H0.5ZM4.42183 6.21835L7.11944 1.97926L6.27577 1.44238L3.57817 5.68148L4.42183 6.21835ZM8.91734 2.99721L7.55279 5.72631L8.44721 6.17352L9.81176 3.44442L8.91734 2.99721ZM8 6.44991H13V5.44991H8V6.44991ZM14.5 7.94991V10.9499H15.5V7.94991H14.5ZM14.6 10.6499L12.2 13.8499L13 14.4499L15.4 11.2499L14.6 10.6499ZM11 14.4499H6V15.4499H11V14.4499ZM4.5 12.9499V5.94991H3.5V12.9499H4.5ZM13 6.44991C13.8284 6.44991 14.5 7.12149 14.5 7.94991H15.5C15.5 6.5692 14.3807 5.44991 13 5.44991V6.44991ZM6 14.4499C5.17157 14.4499 4.5 13.7783 4.5 12.9499H3.5C3.5 14.3306 4.61929 15.4499 6 15.4499V14.4499ZM8.52433 1.64761C8.98782 1.9257 9.15906 2.51376 8.91734 2.99721L9.81176 3.44442C10.2872 2.4936 9.95039 1.33705 9.03883 0.790115L8.52433 1.64761ZM12.2 13.8499C11.9167 14.2276 11.4721 14.4499 11 14.4499V15.4499C11.7869 15.4499 12.5279 15.0794 13 14.4499L12.2 13.8499ZM7.11944 1.97926C7.42046 1.50623 8.04354 1.35914 8.52433 1.64761L9.03883 0.790115C8.09324 0.222766 6.8678 0.512055 6.27577 1.44238L7.11944 1.97926Z" fill="#80B918"/>
</svg>
