<svg width="171" height="25" viewBox="0 0 171 25" fill="none" xmlns="http://www.w3.org/2000/svg">
<path d="M21.6744 20.136L15.3615 4.56614C15.0709 3.78715 14.8204 3.16795 14.63 2.69856C14.4388 2.23913 14.2004 1.80069 13.9185 1.39025C13.6324 0.97789 13.2553 0.636267 12.8163 0.391541C12.287 0.135342 11.7062 0.00222778 11.1178 0.00222778C10.5294 0.00222778 9.9486 0.135342 9.41929 0.391541C8.97917 0.634799 8.60184 0.9767 8.31706 1.39025C7.99934 1.88413 7.73403 2.40962 7.52543 2.95822C7.27825 3.58408 7.06782 4.12338 6.89413 4.57613L0.711479 20.2159C0.450946 20.8451 0.270558 21.3345 0.160332 21.684C0.0568693 22.007 0.00281624 22.3437 0 22.6827C0.00494751 22.9728 0.0708214 23.2587 0.193359 23.5218C0.315896 23.785 0.492401 24.0197 0.711479 24.2107C0.925565 24.4247 1.18024 24.5941 1.46066 24.709C1.74109 24.8238 2.04162 24.8819 2.3448 24.8799C2.63678 24.9064 2.93092 24.8632 3.20279 24.7538C3.47465 24.6444 3.7164 24.4719 3.908 24.2507C4.3926 23.4895 4.77976 22.6708 5.06038 21.8138L6.21274 18.7178L7.5054 15.0526L11.0827 5.11544L14.7202 15.0526L16.0429 18.7178L17.1952 21.714C17.3455 22.0835 17.5359 22.5129 17.7464 23.0023C17.8999 23.389 18.1018 23.7548 18.3476 24.0909C18.5377 24.3221 18.7729 24.5123 19.039 24.6502C19.4857 24.8428 19.9798 24.8981 20.4583 24.8092C20.9367 24.7202 21.3776 24.491 21.7245 24.1508C21.9371 23.9557 22.108 23.7198 22.2268 23.4572C22.3456 23.1946 22.4099 22.9108 22.4159 22.6228C22.3118 21.758 22.0611 20.9171 21.6744 20.136Z" fill="black"/>
<path d="M27.8771 3.24788L33.3483 19.397L38.8396 3.12803C39.1302 2.27913 39.3406 1.6799 39.4809 1.35033C39.6407 0.994423 39.8849 0.682541 40.1924 0.441506C40.5848 0.159359 41.0618 0.0184961 41.5451 0.0420214C41.953 0.0427027 42.3536 0.149413 42.7075 0.351619C43.0539 0.556877 43.3433 0.845281 43.5492 1.19054C43.7364 1.49104 43.8401 1.83569 43.8499 2.18925C43.8486 2.45202 43.8149 2.71365 43.7496 2.96824C43.6907 3.24698 43.6104 3.52078 43.5092 3.78718L43.2085 4.61611L37.3565 20.3657C37.1461 20.965 36.9357 21.5342 36.7252 22.0835C36.5398 22.5853 36.2978 23.0644 36.0038 23.5117C35.7039 23.9636 35.2913 24.3302 34.8065 24.5753C34.3216 24.8204 33.7812 24.9357 33.2381 24.9099C32.657 24.9273 32.081 24.7967 31.5647 24.5304C31.1203 24.2893 30.7392 23.9471 30.4524 23.5316C30.1649 23.0756 29.9201 22.5942 29.7209 22.0935C29.5105 21.5542 29.3101 20.9849 29.0996 20.3857L23.3479 4.7759C23.2477 4.48627 23.1475 4.20664 23.0372 3.93699C22.9312 3.64662 22.8442 3.34971 22.7767 3.04814C22.7123 2.78294 22.6754 2.51187 22.6664 2.23918C22.6717 1.95201 22.7347 1.66881 22.8518 1.40635C22.9688 1.14388 23.1375 0.907484 23.3479 0.711154C23.5665 0.485237 23.8301 0.307269 24.1217 0.188614C24.4133 0.0699585 24.7265 0.0132229 25.0413 0.022043C25.3781 -0.00933915 25.7173 0.0447205 26.0274 0.179181C26.3375 0.313641 26.6084 0.524133 26.815 0.791053C27.2751 1.56027 27.6322 2.38623 27.8771 3.24788Z" fill="black"/>
<path d="M57.7183 0.0419835C59.966 -0.0158209 62.1901 0.510803 64.1715 1.57001C65.9428 2.56173 67.3663 4.07108 68.2499 5.89442C69.2127 7.953 69.6859 10.2053 69.6327 12.4759C69.6539 14.1961 69.4002 15.9087 68.8812 17.5493C68.4084 19.0234 67.6338 20.3837 66.6065 21.5442C65.5786 22.6718 64.3028 23.5469 62.8788 24.1009C59.6056 25.2997 56.0113 25.2997 52.7381 24.1009C51.3129 23.539 50.0348 22.6613 49.0004 21.5342C47.9702 20.3758 47.1953 19.0149 46.7258 17.5394C46.205 15.9091 45.9479 14.2067 45.9642 12.4959C45.9406 10.7651 46.2117 9.04289 46.7658 7.40246C47.2402 5.92044 48.0297 4.55784 49.0806 3.40763C50.1035 2.30933 51.3648 1.45872 52.7681 0.920844C54.3468 0.315614 56.0271 0.0172898 57.7183 0.0419835ZM64.6725 12.436C64.7121 10.8655 64.422 9.30409 63.8208 7.85188C63.3249 6.64481 62.4676 5.6195 61.3658 4.91568C60.2702 4.24331 59.0047 3.89681 57.7183 3.91697C56.7835 3.90913 55.8578 4.09979 55.0027 4.47625C54.1744 4.83783 53.4406 5.38458 52.8583 6.07418C52.2128 6.86717 51.7325 7.78049 51.4454 8.76071C51.0813 9.95139 50.9055 11.1913 50.9244 12.436C50.9061 13.6904 51.0818 14.9401 51.4454 16.1412C51.735 17.1515 52.2334 18.0904 52.9084 18.8976C53.5022 19.5977 54.245 20.1572 55.0829 20.5355C56.069 20.9502 57.1385 21.13 58.2065 21.0606C59.2746 20.9913 60.3117 20.6747 61.2355 20.136C62.3439 19.4482 63.2173 18.4419 63.7406 17.2497C64.4046 15.7336 64.7229 14.0895 64.6725 12.436Z" fill="black"/>
<path d="M94.4135 16.9302C94.3924 17.7922 94.1982 18.6411 93.8423 19.427C93.4075 20.4004 92.8037 21.2896 92.0586 22.0536C91.1762 22.9596 90.1151 23.6736 88.9423 24.1509C87.5375 24.7084 86.035 24.98 84.5232 24.9499C83.3543 24.961 82.1878 24.8404 81.0461 24.5903C80.0438 24.3656 79.0834 23.9847 78.2003 23.4618C77.3154 22.9267 76.5235 22.2522 75.8555 21.4644C75.207 20.69 74.6583 19.8378 74.2221 18.9276C73.7716 17.9715 73.4352 16.9659 73.2201 15.9315C72.9945 14.8205 72.8837 13.6894 72.8894 12.5559C72.8614 10.7824 73.1463 9.01783 73.7311 7.34263C74.2587 5.87618 75.0881 4.53586 76.1661 3.40771C77.211 2.32611 78.4749 1.47843 79.8737 0.920932C81.3169 0.344875 82.8584 0.053194 84.413 0.0620418C86.2221 0.028703 88.0126 0.429473 89.6337 1.23054C91.0258 1.89059 92.2337 2.88179 93.1509 4.1168C93.8841 5.04664 94.3079 6.18129 94.3634 7.36261C94.3699 7.91378 94.1573 8.44513 93.7722 8.84069C93.5931 9.04315 93.3725 9.20497 93.1253 9.31523C92.8781 9.42549 92.61 9.48163 92.3392 9.47987C91.8279 9.51564 91.3223 9.35482 90.9263 9.03045C90.5147 8.57608 90.1766 8.06055 89.9243 7.50243C89.3976 6.44386 88.6246 5.52616 87.6697 4.82589C86.7242 4.2107 85.6116 3.90038 84.4831 3.93704C83.5564 3.90745 82.636 4.09967 81.7992 4.49759C80.9623 4.89551 80.2333 5.48755 79.6733 6.22408C78.3701 8.12968 77.7424 10.4142 77.8896 12.7157C77.8386 14.3107 78.1078 15.8997 78.6813 17.3896C79.1226 18.5273 79.9067 19.5007 80.9258 20.176C81.9454 20.8028 83.1252 21.1219 84.3228 21.0949C85.5877 21.1446 86.8362 20.795 87.8901 20.0961C88.9186 19.3214 89.6844 18.2515 90.0846 17.0301C90.2545 16.4703 90.5189 15.9435 90.8662 15.4721C91.0475 15.2615 91.2767 15.0972 91.5347 14.9929C91.7927 14.8887 92.072 14.8475 92.3492 14.8729C92.6277 14.8708 92.9038 14.9235 93.1618 15.0281C93.4197 15.1326 93.6544 15.2869 93.8523 15.4821C94.2229 15.8727 94.4244 16.3928 94.4135 16.9302Z" fill="black"/>
<path d="M118.763 20.136L112.45 4.56612C112.15 3.78712 111.909 3.16792 111.719 2.69853C111.524 2.24101 111.286 1.80295 111.007 1.39022C110.719 0.980136 110.342 0.639033 109.905 0.391512C109.378 0.115869 108.787 -0.0183501 108.192 0.00201619C107.606 -0.0172774 107.025 0.117032 106.508 0.391512C106.066 0.631999 105.688 0.974438 105.406 1.39022C105.084 1.88191 104.819 2.40782 104.614 2.95819L103.973 4.5761L97.7903 20.2159C97.5432 20.8417 97.3628 21.3311 97.2493 21.684C97.1458 22.007 97.0917 22.3437 97.0889 22.6827C97.0914 22.9722 97.1551 23.258 97.276 23.5213C97.3969 23.7846 97.5721 24.0196 97.7903 24.2107C98.0048 24.4242 98.2595 24.5933 98.5399 24.7081C98.8202 24.823 99.1206 24.8814 99.4237 24.8798C99.7159 24.9089 100.011 24.8669 100.283 24.7573C100.555 24.6477 100.797 24.4738 100.987 24.2507C101.476 23.4904 101.866 22.6717 102.149 21.8138L103.302 18.7178L104.584 15.0526L108.162 5.11541L111.809 15.0526L113.122 18.7178L114.284 21.7139C114.434 22.0835 114.615 22.5129 114.835 23.0023C114.989 23.389 115.191 23.7548 115.437 24.0909C115.622 24.3266 115.858 24.5178 116.128 24.6501C116.442 24.7923 116.785 24.8606 117.13 24.8499C117.445 24.8562 117.759 24.7973 118.05 24.677C118.342 24.5567 118.605 24.3775 118.823 24.1508C119.039 23.9577 119.213 23.7224 119.334 23.4595C119.454 23.1966 119.519 22.9118 119.525 22.6228C119.409 21.758 119.152 20.9179 118.763 20.136Z" fill="black"/>
<path d="M126.128 0.451431H132.511C133.948 0.429313 135.382 0.583609 136.78 0.910836C137.979 1.22738 139.088 1.81906 140.017 2.63861C142.529 4.78916 143.785 8.05493 143.785 12.4359C143.8 13.7768 143.676 15.1155 143.414 16.4308C143.179 17.5561 142.784 18.6423 142.241 19.6566C141.719 20.6185 141.042 21.4889 140.237 22.2333C139.606 22.8064 138.89 23.2781 138.113 23.6315C137.325 23.9881 136.493 24.2367 135.638 24.3705C134.643 24.5183 133.638 24.5884 132.632 24.5802H126.249C125.557 24.6247 124.866 24.4869 124.244 24.1808C124.029 24.0589 123.84 23.8955 123.689 23.7C123.537 23.5045 123.426 23.2809 123.363 23.0422C123.206 22.4223 123.135 21.7838 123.152 21.1447V3.44756C123.075 3.03732 123.099 2.6145 123.223 2.21573C123.347 1.81696 123.566 1.45429 123.862 1.15914C124.158 0.863995 124.522 0.645287 124.922 0.521965C125.323 0.398644 125.747 0.37443 126.158 0.451431H126.128ZM128.032 4.31644V20.6653H131.74C132.379 20.674 133.017 20.6507 133.654 20.5954C134.144 20.5481 134.625 20.4373 135.087 20.2658C135.559 20.1063 135.995 19.8551 136.369 19.5268C137.999 18.1486 138.818 15.7716 138.824 12.396C138.943 10.5542 138.569 8.7141 137.742 7.06289C137.174 6.00132 136.226 5.19188 135.087 4.79582C133.841 4.45198 132.551 4.29049 131.259 4.31644H128.032Z" fill="black"/>
<path d="M158.725 0.0419835C160.973 -0.0158209 163.197 0.510803 165.178 1.57001C166.95 2.56173 168.373 4.07108 169.257 5.89442C170.22 7.953 170.693 10.2053 170.64 12.4759C170.661 14.1961 170.407 15.9087 169.888 17.5493C169.419 19.0252 168.644 20.3863 167.613 21.5442C166.585 22.6718 165.31 23.5469 163.886 24.1009C160.612 25.2997 157.018 25.2997 153.745 24.1009C152.32 23.539 151.042 22.6613 150.007 21.5342C148.977 20.3758 148.202 19.0149 147.733 17.5394C147.212 15.9091 146.955 14.2067 146.971 12.4959C146.952 10.7655 147.223 9.04407 147.773 7.40246C148.247 5.92044 149.037 4.55784 150.087 3.40763C151.112 2.31147 152.373 1.46122 153.775 0.920844C155.354 0.315614 157.034 0.0172898 158.725 0.0419835ZM165.679 12.436C165.719 10.8655 165.429 9.30409 164.828 7.85188C164.332 6.64481 163.474 5.6195 162.373 4.91568C161.278 4.24228 160.012 3.8957 158.725 3.91697C157.79 3.90913 156.865 4.09979 156.01 4.47625C155.183 4.84148 154.45 5.38766 153.865 6.07418C153.223 6.86963 152.744 7.78216 152.452 8.76071C152.088 9.95139 151.912 11.1913 151.931 12.436C151.913 13.6904 152.089 14.9401 152.452 16.1412C152.746 17.1499 153.244 18.088 153.915 18.8976C154.511 19.6002 155.257 20.16 156.1 20.5355C157.084 20.9501 158.152 21.1298 159.219 21.0605C160.285 20.9911 161.32 20.6746 162.242 20.136C163.351 19.4482 164.224 18.4419 164.747 17.2497C165.411 15.7336 165.73 14.0895 165.679 12.436Z" fill="black"/>
<path d="M11.2131 21.2446C12.6409 21.2446 13.7984 20.0909 13.7984 18.6679C13.7984 17.2448 12.6409 16.0912 11.2131 16.0912C9.78529 16.0912 8.62781 17.2448 8.62781 18.6679C8.62781 20.0909 9.78529 21.2446 11.2131 21.2446Z" fill="#80B918"/>
<path d="M108.302 21.2446C109.73 21.2446 110.887 20.0909 110.887 18.6679C110.887 17.2448 109.73 16.0912 108.302 16.0912C106.874 16.0912 105.717 17.2448 105.717 18.6679C105.717 20.0909 106.874 21.2446 108.302 21.2446Z" fill="#80B918"/>
<path d="M57.7984 15.0626C59.2262 15.0626 60.3837 13.909 60.3837 12.4859C60.3837 11.0629 59.2262 9.90924 57.7984 9.90924C56.3706 9.90924 55.2131 11.0629 55.2131 12.4859C55.2131 13.909 56.3706 15.0626 57.7984 15.0626Z" fill="#80B918"/>
<path d="M158.815 15.0725C160.243 15.0725 161.401 13.9189 161.401 12.4959C161.401 11.0728 160.243 9.91919 158.815 9.91919C157.387 9.91919 156.23 11.0728 156.23 12.4959C156.23 13.9189 157.387 15.0725 158.815 15.0725Z" fill="#80B918"/>
</svg>
