<svg width="25" height="25" viewBox="0 0 25 25" fill="none" xmlns="http://www.w3.org/2000/svg">
<path fill-rule="evenodd" clip-rule="evenodd" d="M9.8871 20C6.5586 20 3.78159 17.6388 3.13974 14.5L3.13969 14.4997C3.1303 14.4538 3.12137 14.4078 3.1129 14.3615C3.03874 13.9566 3 13.5393 3 13.1129C3 13.0505 3.05055 13 3.1129 13H12H20.8871C20.9495 13 21 13.0505 21 13.1129C21 13.5393 20.9613 13.9566 20.8871 14.3615C20.8786 14.4078 20.8697 14.4538 20.8603 14.4997L20.8603 14.5C20.2184 17.6388 17.4414 20 14.1129 20H13H9.8871ZM15.4873 21.3879C19.4656 20.7321 22.5 17.2769 22.5 13.1129C22.5 12.2221 21.7779 11.5 20.8871 11.5H12H3.1129C2.22213 11.5 1.5 12.2221 1.5 13.1129C1.5 17.2769 4.53445 20.7321 8.51266 21.3879C8.57741 21.7363 8.8829 22 9.25 22H14.75C15.1171 22 15.4226 21.7363 15.4873 21.3879Z" fill="black"/>
<path d="M4 9H7L8.5 7L11.5 8H14.5L18.5 6.5L20 12H3L4 9Z" fill="#80B918"/>
<path d="M3 11.625C3 10.5307 2.56016 7.86037 6.21849 9.18325C6.67655 9.34889 7.19399 9.19748 7.35296 8.73706C7.89855 7.15687 7.98939 5.03125 10.4223 8.20813C10.7527 8.63957 11.361 8.75184 11.8633 8.54455C13.1831 7.99998 14.5917 8 15 8" stroke="black" stroke-width="1.5" stroke-linecap="round"/>
<path d="M15 7.99994C16 7.66661 20.5 3.99994 18 8.99994" stroke="black" stroke-width="1.5" stroke-linecap="round"/>
<path d="M18 9C19.1667 9 21.1 9.6 19.5 12" stroke="black" stroke-width="1.5" stroke-linecap="round"/>
</svg>
