<svg width="399" height="381" viewBox="0 0 399 381" fill="none" xmlns="http://www.w3.org/2000/svg">
<path d="M398.301 284.911C398.332 284.655 398.409 284.408 398.529 284.18C398.474 284.069 398.446 283.947 398.448 283.823C398.448 278.45 398.334 273.077 398.334 267.688C398.334 264.166 398.513 260.643 398.496 257.121C398.496 256.358 398.496 255.595 398.496 254.848C398.363 254.692 398.289 254.494 398.289 254.288C398.289 254.083 398.363 253.884 398.496 253.728C398.496 252.332 398.496 250.92 398.496 249.508C398.483 247.415 398.592 245.323 398.821 243.242C398.821 243.242 398.529 139.517 398.545 137.391C398.561 135.264 398.545 129.599 398.302 128.593C398.155 127.927 398.302 82.8825 397.717 81.0645C397.457 80.3503 397.717 62.5272 397.977 54.3947C397.976 54.2879 397.998 54.1821 398.041 54.0845C398.085 53.987 398.149 53.8998 398.229 53.8291C398.309 53.7583 398.403 53.7055 398.505 53.6743C398.608 53.643 398.715 53.6341 398.821 53.648L398.821 2.7433L148.776 2.74326L145.804 2.8569L145.804 379.448H171.937C175.121 379.448 178.304 379.448 181.488 379.448H229.921C234.599 379.188 239.276 378.896 243.97 378.766C246.585 378.766 249.2 378.766 251.815 378.766C254.395 378.913 256.983 378.766 259.53 378.328C259.674 378.299 259.823 378.31 259.961 378.36C260.1 378.409 260.222 378.495 260.315 378.608C260.408 378.721 260.469 378.858 260.491 379.003C260.513 379.148 260.495 379.296 260.44 379.432L398.74 379.432C398.74 379.432 398.74 336.27 398.74 334.63V330.556C398.48 325.053 398.626 298.887 398.415 291.258C398.367 290.355 398.367 289.45 398.415 288.547C398.415 288.06 398.724 286.81 398.724 286.81C398.741 286.67 398.741 286.528 398.724 286.388C398.594 285.917 398.253 285.511 398.301 284.911Z" fill="#B2EF9B"/>
<path d="M246.472 48.8919C249.091 48.8919 251.214 46.7698 251.214 44.1521C251.214 41.5343 249.091 39.4122 246.472 39.4122C243.852 39.4122 241.729 41.5343 241.729 44.1521C241.729 46.7698 243.852 48.8919 246.472 48.8919Z" fill="#373838"/>
<path d="M279.037 48.8919C281.656 48.8919 283.78 46.7698 283.78 44.1521C283.78 41.5343 281.656 39.4122 279.037 39.4122C276.418 39.4122 274.294 41.5343 274.294 44.1521C274.294 46.7698 276.418 48.8919 279.037 48.8919Z" fill="#373838"/>
<path d="M316.195 44.5523C316.452 41.9472 314.549 39.6265 311.942 39.3688C309.335 39.1111 307.013 41.0139 306.755 43.619C306.498 46.224 308.402 48.5447 311.008 48.8024C313.615 49.0601 315.937 47.1573 316.195 44.5523Z" fill="#373838"/>
<path d="M246.472 78.1427C249.091 78.1427 251.214 76.0206 251.214 73.4028C251.214 70.7851 249.091 68.663 246.472 68.663C243.852 68.663 241.729 70.7851 241.729 73.4028C241.729 76.0206 243.852 78.1427 246.472 78.1427Z" fill="#373838"/>
<path d="M279.037 78.1427C281.656 78.1427 283.78 76.0206 283.78 73.4028C283.78 70.7851 281.656 68.663 279.037 68.663C276.418 68.663 274.294 70.7851 274.294 73.4028C274.294 76.0206 276.418 78.1427 279.037 78.1427Z" fill="#373838"/>
<path d="M316.199 73.7934C316.456 71.1884 314.552 68.8677 311.946 68.61C309.339 68.3522 307.017 70.2551 306.759 72.8601C306.501 75.4651 308.405 77.7858 311.012 78.0436C313.619 78.3013 315.941 76.3984 316.199 73.7934Z" fill="#373838"/>
<path d="M246.472 313.512C249.091 313.512 251.214 311.39 251.214 308.772C251.214 306.154 249.091 304.032 246.472 304.032C243.852 304.032 241.729 306.154 241.729 308.772C241.729 311.39 243.852 313.512 246.472 313.512Z" fill="#373838"/>
<path d="M279.037 313.512C281.656 313.512 283.779 311.39 283.779 308.772C283.779 306.155 281.656 304.032 279.037 304.032C276.418 304.032 274.294 306.155 274.294 308.772C274.294 311.39 276.418 313.512 279.037 313.512Z" fill="#373838"/>
<path d="M316.306 309.141C316.522 306.532 314.581 304.242 311.971 304.026C309.361 303.811 307.069 305.75 306.853 308.359C306.637 310.968 308.578 313.258 311.189 313.474C313.799 313.69 316.09 311.75 316.306 309.141Z" fill="#373838"/>
<path d="M246.472 342.763C249.091 342.763 251.214 340.641 251.214 338.023C251.214 335.405 249.091 333.283 246.472 333.283C243.852 333.283 241.729 335.405 241.729 338.023C241.729 340.641 243.852 342.763 246.472 342.763Z" fill="#373838"/>
<path d="M279.037 342.763C281.656 342.763 283.779 340.641 283.779 338.023C283.779 335.405 281.656 333.283 279.037 333.283C276.418 333.283 274.294 335.405 274.294 338.023C274.294 340.641 276.418 342.763 279.037 342.763Z" fill="#373838"/>
<path d="M316.304 338.384C316.52 335.775 314.579 333.485 311.969 333.269C309.358 333.053 307.067 334.993 306.851 337.602C306.635 340.211 308.576 342.501 311.186 342.717C313.797 342.932 316.088 340.993 316.304 338.384Z" fill="#373838"/>
<path d="M398.756 184.854C398.756 184.854 398.756 184.773 398.756 184.741C398.756 184.286 397.766 64.6211 397.879 56.7809C365.595 63.333 336.58 80.8611 315.769 106.383C294.958 131.906 283.637 163.845 283.733 196.769C283.829 229.692 295.335 261.566 316.294 286.967C337.253 312.368 366.37 329.727 398.691 336.091C399.244 328.787 398.838 198.003 398.756 184.854Z" fill="#91CB3E"/>
<path d="M244.831 0C231.819 14.2149 216.032 25.6169 198.444 33.5035C180.856 41.3902 161.838 45.5946 142.562 45.8576C123.286 46.1207 104.161 42.4369 86.3635 35.0332C68.5662 27.6295 52.474 16.6627 39.0781 2.80818L36.1221 2.80818C37.1291 3.86329 38.1035 4.9184 39.1268 5.95727C66.052 32.8595 102.566 47.9724 140.639 47.9724C178.712 47.9724 215.226 32.8595 242.151 5.9573C244.052 4.05812 245.871 2.11024 247.641 0.129887C246.634 0.0649576 245.708 0.0324649 244.831 0Z" fill="#373838"/>
<path d="M216.229 0.4545C195.291 17.0238 169.487 26.2619 142.784 26.7487C116.081 27.2355 89.9566 18.9441 68.4274 3.14905L64.7729 3.14905C87.0627 20.2783 114.503 29.3532 142.616 28.8933C170.73 28.4335 197.858 18.4659 219.575 0.616834L216.229 0.4545Z" fill="#373838"/>
<path d="M178.889 1.29856L175.787 1.44469C155.21 8.92957 132.78 9.65745 111.761 3.52242L104.956 3.52242C130.072 12.5688 157.693 11.7156 182.202 1.13628L178.889 1.29856Z" fill="#373838"/>
<path d="M241.583 378.929H244.458C243.662 378.085 242.833 377.224 242.054 376.396C215.129 349.494 178.614 334.381 140.542 334.381C102.469 334.381 65.9545 349.494 39.0293 376.396C37.9898 377.451 36.9666 378.523 35.9596 379.643H38.9969C52.109 366.052 67.8168 355.229 85.1899 347.815C102.563 340.401 121.248 336.546 140.139 336.479C159.029 336.413 177.741 340.136 195.166 347.427C212.591 354.718 228.375 365.43 241.583 378.929Z" fill="#373838"/>
<path d="M217.415 379.984C195.709 362.919 168.934 353.564 141.317 353.396C113.701 353.229 86.8145 362.258 64.9027 379.059H68.5247C89.6534 363.594 115.202 355.336 141.39 355.509C167.579 355.681 193.016 364.274 213.939 380.016L217.415 379.984Z" fill="#373838"/>
<path d="M178.239 379.497C154.339 370.321 127.907 370.188 103.916 379.123L110.023 379.237C130.233 372.975 151.881 373.072 172.035 379.513C174.065 379.497 176.128 379.48 178.239 379.497Z" fill="#373838"/>
<path d="M398.935 195.389L380.224 194.853C377.859 194.792 375.528 195.428 373.521 196.68C371.514 197.933 369.919 199.747 368.936 201.898C365.379 209.528 358.2 214.3 350.648 214.008C325.473 213.212 276.633 208.911 269.194 208.245V205.242L343.241 205.242C343.784 205.238 344.32 205.124 344.817 204.907C345.314 204.689 345.762 204.372 346.132 203.976C346.501 203.582 346.785 203.116 346.967 202.608C347.148 202.1 347.224 201.56 347.188 201.022C347.11 200.007 346.648 199.06 345.897 198.373C345.146 197.686 344.162 197.31 343.144 197.321L269.194 197.321V195.162L343.241 195.162C343.782 195.189 344.323 195.106 344.83 194.916C345.337 194.726 345.8 194.435 346.19 194.06C346.58 193.685 346.889 193.234 347.098 192.734C347.307 192.235 347.411 191.698 347.404 191.157C347.397 190.616 347.28 190.082 347.059 189.589C346.838 189.095 346.518 188.651 346.118 188.286C345.719 187.92 345.249 187.64 344.738 187.463C344.226 187.286 343.684 187.216 343.144 187.257L269.194 187.257V185.098L343.241 185.098C344.292 185.085 345.295 184.655 346.029 183.903C346.763 183.151 347.169 182.139 347.156 181.088C347.143 180.038 346.713 179.036 345.96 178.302C345.208 177.568 344.195 177.163 343.144 177.176H269.194V174.092C276.633 173.427 325.473 169.125 350.648 168.33C358.2 168.054 365.379 172.794 368.936 180.439C369.923 182.587 371.518 184.4 373.524 185.652C375.53 186.904 377.86 187.541 380.224 187.484L398.789 186.948C398.789 186.267 398.789 185.601 398.789 184.919L380.208 185.455C378.253 185.498 376.327 184.968 374.671 183.929C373.014 182.891 371.697 181.389 370.885 179.611C369.236 175.771 366.528 172.479 363.077 170.119C359.625 167.759 355.574 166.429 351.395 166.284H350.696C323.491 167.145 268.723 172.096 268.171 172.144L267.213 172.226V179.27L343.258 179.27C343.742 179.26 344.212 179.434 344.574 179.756C344.935 180.078 345.161 180.525 345.207 181.007C345.229 181.263 345.198 181.52 345.115 181.763C345.032 182.006 344.899 182.228 344.725 182.417C344.55 182.605 344.338 182.754 344.102 182.855C343.866 182.957 343.612 183.007 343.355 183.004L267.099 183.004V189.351L343.144 189.351C343.628 189.34 344.099 189.514 344.46 189.836C344.822 190.158 345.048 190.605 345.093 191.088C345.113 191.341 345.08 191.596 344.996 191.837C344.912 192.077 344.779 192.297 344.606 192.484C344.43 192.668 344.218 192.815 343.983 192.916C343.749 193.016 343.496 193.068 343.241 193.068H267.099V199.415L343.144 199.415C343.628 199.404 344.099 199.578 344.46 199.9C344.822 200.222 345.048 200.67 345.093 201.152C345.111 201.406 345.076 201.662 344.991 201.902C344.906 202.143 344.773 202.363 344.599 202.55C344.426 202.738 344.216 202.887 343.982 202.99C343.749 203.093 343.497 203.147 343.241 203.148H267.099V210.112L268.057 210.193C268.609 210.193 323.377 215.193 350.566 216.053H351.281C355.46 215.908 359.512 214.578 362.963 212.219C366.414 209.859 369.122 206.567 370.771 202.726C371.585 200.949 372.902 199.449 374.558 198.411C376.215 197.373 378.139 196.841 380.094 196.883L398.951 197.418C398.984 196.785 398.967 196.087 398.935 195.389Z" fill="#373838"/>
</svg>
