<svg width="28" height="25" viewBox="0 0 28 25" fill="none" xmlns="http://www.w3.org/2000/svg">
<path d="M12.3217 22.4622L12.3202 22.4608C8.79195 19.2614 5.94455 16.6771 3.96717 14.2596C2.00128 11.8561 1 9.73964 1 7.49319C1 3.84929 3.84929 1 7.49319 1C9.56098 1 11.5612 1.96748 12.8626 3.49575L13.624 4.38982L14.3853 3.49575C15.6868 1.96748 17.687 1 19.7548 1C23.3987 1 26.248 3.84929 26.248 7.49319C26.248 9.73965 25.2467 11.8562 23.2806 14.2616C21.3031 16.6809 18.4558 19.2683 14.9276 22.4745C14.9274 22.4748 14.9272 22.475 14.9269 22.4752L13.6265 23.65L12.3217 22.4622Z" fill="white" stroke="#80B918" stroke-width="2"/>
</svg>
